<svg width="53" height="46" viewBox="0 0 53 46" fill="none" xmlns="http://www.w3.org/2000/svg">
<path d="M34 34L29.9 19.5M15 34L20.4 19.5M20.4 19.5L25.8 5L29.9 19.5M20.4 19.5H29.9" stroke="white" stroke-width="2"/>
<path d="M38 34L33.9 19.5M19 34L24.4 19.5M24.4 19.5L29.8 5L33.9 19.5M24.4 19.5H33.9" stroke="white" stroke-width="2"/>
<g filter="url(#filter0_dd_25_73)">
<path d="M48.5 19C48.5 29.1414 38.7328 37.5 26.5 37.5C14.2672 37.5 4.5 29.1414 4.5 19C4.5 8.85863 14.2672 0.5 26.5 0.5C38.7328 0.5 48.5 8.85863 48.5 19Z" stroke="white" shape-rendering="crispEdges"/>
</g>
<defs>
<filter id="filter0_dd_25_73" x="0" y="0" width="53" height="46" filterUnits="userSpaceOnUse" color-interpolation-filters="sRGB">
<feFlood flood-opacity="0" result="BackgroundImageFix"/>
<feColorMatrix in="SourceAlpha" type="matrix" values="0 0 0 0 0 0 0 0 0 0 0 0 0 0 0 0 0 0 127 0" result="hardAlpha"/>
<feOffset dy="4"/>
<feGaussianBlur stdDeviation="2"/>
<feComposite in2="hardAlpha" operator="out"/>
<feColorMatrix type="matrix" values="0 0 0 0 0 0 0 0 0 0 0 0 0 0 0 0 0 0 0.25 0"/>
<feBlend mode="normal" in2="BackgroundImageFix" result="effect1_dropShadow_25_73"/>
<feColorMatrix in="SourceAlpha" type="matrix" values="0 0 0 0 0 0 0 0 0 0 0 0 0 0 0 0 0 0 127 0" result="hardAlpha"/>
<feOffset dy="4"/>
<feGaussianBlur stdDeviation="2"/>
<feComposite in2="hardAlpha" operator="out"/>
<feColorMatrix type="matrix" values="0 0 0 0 0 0 0 0 0 0 0 0 0 0 0 0 0 0 0.25 0"/>
<feBlend mode="normal" in2="effect1_dropShadow_25_73" result="effect2_dropShadow_25_73"/>
<feBlend mode="normal" in="SourceGraphic" in2="effect2_dropShadow_25_73" result="shape"/>
</filter>
</defs>
</svg>
